<svg width="28" height="27" viewBox="0 0 28 27" fill="none" xmlns="http://www.w3.org/2000/svg">
<path d="M25.1399 0H3.3217C1.98231 0 0.897461 1.08485 0.897461 2.42424V24.2424C0.897461 25.5818 1.98231 26.6667 3.3217 26.6667H15.4429V15.7576H11.8066V12.1212H15.4429V10.1685C15.4429 6.47151 17.2441 4.84848 20.3169 4.84848C21.7884 4.84848 22.5665 4.95757 22.935 5.00727V8.48485H20.8393C19.535 8.48485 19.0793 9.17333 19.0793 10.5673V12.1212H22.9023L22.3835 15.7576H19.0793V26.6667H25.1399C26.4793 26.6667 27.5641 25.5818 27.5641 24.2424V2.42424C27.5641 1.08485 26.4781 0 25.1399 0Z" fill="white"/>
</svg>
