<svg width="28" height="27" viewBox="0 0 28 27" fill="none" xmlns="http://www.w3.org/2000/svg">
<path d="M8.33982 0C4.05204 0 0.564209 3.49106 0.564209 7.77995V18.8911C0.564209 23.1788 4.05527 26.6667 8.34416 26.6667H19.4553C23.743 26.6667 27.2309 23.1756 27.2309 18.8867V7.77561C27.2309 3.48783 23.7398 0 19.4509 0H8.33982ZM21.6753 4.44444C22.2887 4.44444 22.7864 4.94222 22.7864 5.55556C22.7864 6.16889 22.2887 6.66667 21.6753 6.66667C21.062 6.66667 20.5642 6.16889 20.5642 5.55556C20.5642 4.94222 21.062 4.44444 21.6753 4.44444ZM13.8975 6.66667C17.5742 6.66667 20.5642 9.65667 20.5642 13.3333C20.5642 17.01 17.5742 20 13.8975 20C10.2209 20 7.23088 17.01 7.23088 13.3333C7.23088 9.65667 10.2209 6.66667 13.8975 6.66667ZM13.8975 8.88889C12.7188 8.88889 11.5883 9.35714 10.7548 10.1906C9.92135 11.0241 9.4531 12.1546 9.4531 13.3333C9.4531 14.5121 9.92135 15.6425 10.7548 16.476C11.5883 17.3095 12.7188 17.7778 13.8975 17.7778C15.0763 17.7778 16.2067 17.3095 17.0402 16.476C17.8737 15.6425 18.342 14.5121 18.342 13.3333C18.342 12.1546 17.8737 11.0241 17.0402 10.1906C16.2067 9.35714 15.0763 8.88889 13.8975 8.88889Z" fill="white"/>
</svg>
