<svg width="25" height="25" viewBox="0 0 25 25" fill="none" xmlns="http://www.w3.org/2000/svg">
<path d="M23.75 18.0351V21.4101C23.7513 21.7234 23.6871 22.0335 23.5616 22.3206C23.436 22.6077 23.2519 22.8654 23.0211 23.0772C22.7902 23.289 22.5176 23.4503 22.2208 23.5507C21.924 23.651 21.6095 23.6883 21.2975 23.6601C17.8357 23.284 14.5104 22.101 11.5887 20.2064C8.87054 18.4791 6.56599 16.1746 4.83874 13.4564C2.93746 10.5215 1.75426 7.17998 1.38499 3.70261C1.35687 3.39151 1.39385 3.07796 1.49355 2.78194C1.59325 2.48591 1.7535 2.21388 1.9641 1.98318C2.17469 1.75248 2.43102 1.56816 2.71675 1.44195C3.00248 1.31574 3.31137 1.2504 3.62374 1.25011H6.99874C7.54471 1.24474 8.074 1.43807 8.48797 1.79408C8.90193 2.15009 9.17232 2.64449 9.24874 3.18511C9.39119 4.26518 9.65537 5.32568 10.0362 6.34636C10.1876 6.74902 10.2204 7.18664 10.1306 7.60735C10.0409 8.02806 9.83246 8.41423 9.52999 8.72011L8.10124 10.1489C9.70274 12.9653 12.0347 15.2974 14.8512 16.8989L16.28 15.4701C16.5859 15.1676 16.972 14.9592 17.3927 14.8695C17.8135 14.7797 18.2511 14.8125 18.6537 14.9639C19.6744 15.3447 20.7349 15.6089 21.815 15.7514C22.3615 15.8285 22.8606 16.1037 23.2173 16.5248C23.5741 16.9459 23.7637 17.4834 23.75 18.0351Z" stroke="white" stroke-width="2" stroke-linecap="round" stroke-linejoin="round"/>
</svg>
