<svg width="81" height="81" viewBox="0 0 81 81" fill="none" xmlns="http://www.w3.org/2000/svg">
<path d="M40.78 0.890137C18.69 0.890137 0.780029 18.8001 0.780029 40.8901C0.780029 57.8368 11.3234 72.3101 26.2034 78.1368C25.8534 74.9735 25.5367 70.1168 26.3434 66.6635C27.07 63.5435 31.0334 46.7801 31.0334 46.7801C31.0334 46.7801 29.8367 44.3835 29.8367 40.8435C29.8367 35.2801 33.06 31.1301 37.0734 31.1301C40.4867 31.1301 42.1334 33.6935 42.1334 36.7635C42.1334 40.1968 39.95 45.3268 38.82 50.0801C37.8767 54.0635 40.8167 57.3101 44.7434 57.3101C51.8534 57.3101 57.3167 49.8135 57.3167 38.9935C57.3167 29.4168 50.4367 22.7201 40.61 22.7201C29.23 22.7201 22.55 31.2568 22.55 40.0801C22.55 43.5168 23.8734 47.2035 25.5267 49.2101C25.8534 49.6068 25.9 49.9535 25.8034 50.3568C25.5 51.6201 24.8267 54.3368 24.6934 54.8935C24.52 55.6268 24.1134 55.7801 23.3567 55.4268C18.36 53.1001 15.2367 45.7968 15.2367 39.9301C15.2367 27.3135 24.4034 15.7235 41.6667 15.7235C55.5434 15.7235 66.3267 25.6101 66.3267 38.8268C66.3267 52.6135 57.6334 63.7068 45.57 63.7068C41.5167 63.7068 37.7067 61.6001 36.4034 59.1135C36.4034 59.1135 34.3967 66.7501 33.91 68.6235C33.0067 72.0968 30.57 76.4535 28.9367 79.1101C32.68 80.2635 36.6567 80.8901 40.78 80.8901C62.87 80.8901 80.78 62.9801 80.78 40.8901C80.78 18.8001 62.87 0.890137 40.78 0.890137Z" fill="white"/>
</svg>
