<svg width="35" height="24" viewBox="0 0 35 24" fill="none" xmlns="http://www.w3.org/2000/svg">
<path d="M33.56 0.000579363C33.1966 0.0108951 32.8518 0.155587 32.5984 0.404001L11.2093 20.7833L2.40776 12.3973C2.27889 12.2694 2.12452 12.1673 1.95371 12.097C1.7829 12.0267 1.59907 11.9895 1.413 11.9877C1.22692 11.9859 1.04234 12.0195 0.870063 12.0865C0.697784 12.1535 0.541271 12.2526 0.409689 12.378C0.278108 12.5033 0.174104 12.6525 0.103769 12.8166C0.033433 12.9807 -0.00182074 13.1566 7.2395e-05 13.3339C0.00196553 13.5112 0.0409674 13.6863 0.114794 13.8491C0.18862 14.0118 0.295787 14.1589 0.430018 14.2817L10.2204 23.6098C10.4827 23.8597 10.8384 24 11.2093 24C11.5802 24 11.9359 23.8597 12.1982 23.6098L34.5762 2.28837C34.7783 2.10119 34.9163 1.8602 34.9722 1.59699C35.0281 1.33378 34.9992 1.06062 34.8894 0.813307C34.7795 0.565996 34.5938 0.356074 34.3566 0.211049C34.1194 0.0660242 33.8417 -0.00733672 33.56 0.000579363Z" fill="#1E1E1E"/>
</svg>
