<svg width="85" height="85" viewBox="0 0 85 85" fill="none" xmlns="http://www.w3.org/2000/svg">
<path d="M74.08 0.969971H10.08C4.56602 0.969971 0.0800171 5.45597 0.0800171 10.97V74.97C0.0800171 80.484 4.56602 84.97 10.08 84.97H74.08C79.594 84.97 84.08 80.484 84.08 74.97V10.97C84.08 5.45597 79.594 0.969971 74.08 0.969971ZM66.092 37.616C65.638 37.658 65.178 37.686 64.712 37.686C59.466 37.686 54.856 34.988 52.174 30.91C52.174 41.608 52.174 53.78 52.174 53.984C52.174 63.402 44.538 71.038 35.12 71.038C25.702 71.038 18.066 63.402 18.066 53.984C18.066 44.566 25.702 36.93 35.12 36.93C35.476 36.93 35.824 36.962 36.174 36.984V45.388C35.824 45.346 35.48 45.282 35.12 45.282C30.312 45.282 26.416 49.178 26.416 53.986C26.416 58.794 30.312 62.69 35.12 62.69C39.928 62.69 44.174 58.902 44.174 54.094C44.174 53.904 44.258 14.906 44.258 14.906H52.29C53.046 22.088 58.844 27.756 66.092 28.276V37.616Z" fill="white"/>
</svg>
