<svg width="27" height="27" viewBox="0 0 27 27" fill="none" xmlns="http://www.w3.org/2000/svg">
<path d="M13.5 0C6.04463 0 0 6.04463 0 13.5C0 16.0326 0.711384 18.3938 1.9248 20.4192L0.12085 27L6.84229 25.2356C8.80802 26.3532 11.0773 27 13.5 27C20.9554 27 27 20.9554 27 13.5C27 6.04463 20.9554 0 13.5 0ZM8.87915 7.20264C9.09853 7.20264 9.32393 7.2013 9.51856 7.21143C9.75931 7.21705 10.0213 7.23468 10.2722 7.78931C10.5703 8.44856 11.2195 10.1024 11.3027 10.27C11.386 10.4376 11.445 10.6351 11.3291 10.8545C11.2189 11.0795 11.1615 11.2157 10.9995 11.4148C10.8319 11.6083 10.6482 11.8486 10.4963 11.9949C10.3287 12.1625 10.1556 12.3463 10.3491 12.6804C10.5426 13.0145 11.2146 14.1099 12.208 14.9941C13.4849 16.1349 14.5622 16.4855 14.8975 16.6531C15.2327 16.8207 15.4269 16.7946 15.6204 16.5696C15.8195 16.3502 16.4566 15.5975 16.6816 15.2622C16.901 14.927 17.125 14.985 17.4287 15.0952C17.737 15.2055 19.3808 16.0152 19.7161 16.1829C20.0513 16.3505 20.2711 16.4335 20.3555 16.5696C20.4421 16.7102 20.4422 17.3797 20.1643 18.1604C19.8864 18.94 18.5219 19.694 17.9099 19.7468C17.2923 19.8042 16.7159 20.0244 13.8955 18.9141C10.4935 17.5742 8.34805 14.0897 8.18042 13.8647C8.01279 13.6454 6.81812 12.0531 6.81812 10.4106C6.81812 8.76252 7.68224 7.95537 7.98486 7.62012C8.29311 7.28487 8.65415 7.20264 8.87915 7.20264Z" fill="white"/>
</svg>
