<svg width="36" height="27" viewBox="0 0 36 27" fill="none" xmlns="http://www.w3.org/2000/svg">
<path d="M34.8954 4.58333C34.5636 2.75065 32.9824 1.41602 31.1475 0.999349C28.4017 0.416666 23.32 0 17.8218 0C12.3269 0 7.16387 0.416666 4.41479 0.999349C2.58316 1.41602 0.998778 2.66602 0.666936 4.58333C0.331842 6.66667 0 9.58333 0 13.3333C0 17.0833 0.331842 20 0.74827 22.0833C1.08336 23.916 2.66449 25.2507 4.49613 25.6673C7.41113 26.25 12.4083 26.6667 17.9064 26.6667C23.4046 26.6667 28.4017 26.25 31.3167 25.6673C33.1484 25.2507 34.7295 24.0007 35.0646 22.0833C35.3964 20 35.8128 16.9987 35.8974 13.3333C35.7283 9.58333 35.3118 6.66667 34.8954 4.58333ZM13.3257 19.1667V7.5L23.4859 13.3333L13.3257 19.1667Z" fill="white"/>
</svg>
