<svg width="65" height="30" viewBox="0 0 65 30" fill="none" xmlns="http://www.w3.org/2000/svg">
<path d="M15.2992 22H0.749218V19.99L2.09922 19.69C2.45922 19.61 2.68922 19.5 2.78922 19.36C2.90922 19.22 2.96922 18.95 2.96922 18.55V3.85C2.96922 3.45 2.90922 3.18 2.78922 3.04C2.68922 2.9 2.45922 2.79 2.09922 2.71L0.749218 2.41V0.399999H8.60922V2.41L6.92922 2.71C6.56922 2.79 6.32922 2.9 6.20922 3.04C6.10922 3.18 6.05922 3.45 6.05922 3.85V19.51H11.5792C11.9792 19.51 12.2592 19.45 12.4192 19.33C12.5992 19.21 12.6992 18.98 12.7192 18.64L12.8992 16.3H15.0892L15.2992 22ZM23.9641 22.3C21.8441 22.3 20.2041 21.66 19.0441 20.38C17.9041 19.08 17.3341 17.37 17.3341 15.25C17.3341 13.71 17.6441 12.34 18.2641 11.14C18.8841 9.92 19.7641 8.97 20.9041 8.29C22.0641 7.59 23.4241 7.24 24.9841 7.24C27.1241 7.24 28.7641 7.88 29.9041 9.16C31.0641 10.44 31.6441 12.13 31.6441 14.23C31.6441 15.75 31.3341 17.13 30.7141 18.37C30.0941 19.59 29.2041 20.55 28.0441 21.25C26.8841 21.95 25.5241 22.3 23.9641 22.3ZM24.8941 19.99C26.2141 19.99 27.1441 19.58 27.6841 18.76C28.2441 17.92 28.5241 16.61 28.5241 14.83C28.5241 13.11 28.1341 11.8 27.3541 10.9C26.5941 9.98 25.4941 9.52 24.0541 9.52C22.7341 9.52 21.8041 9.94 21.2641 10.78C20.7241 11.6 20.4541 12.91 20.4541 14.71C20.4541 16.45 20.8341 17.77 21.5941 18.67C22.3541 19.55 23.4541 19.99 24.8941 19.99ZM47.8717 8.44C47.2717 8.88 46.5517 9.15 45.7117 9.25C46.0517 9.67 46.3117 10.17 46.4917 10.75C46.6717 11.33 46.7617 11.92 46.7617 12.52C46.7617 13.62 46.4717 14.61 45.8917 15.49C45.3317 16.35 44.5517 17.03 43.5517 17.53C42.5717 18.01 41.4617 18.25 40.2217 18.25C40.0017 18.25 39.6917 18.23 39.2917 18.19L38.5717 19.78C38.5717 20.12 38.8117 20.33 39.2917 20.41C40.3117 20.59 41.3717 20.75 42.4717 20.89C42.8717 20.95 43.2517 21.01 43.6117 21.07C43.9917 21.13 44.3517 21.19 44.6917 21.25C45.6717 21.41 46.4117 21.73 46.9117 22.21C47.4317 22.71 47.6917 23.39 47.6917 24.25C47.6917 25.19 47.3817 26.06 46.7617 26.86C46.1417 27.66 45.2717 28.3 44.1517 28.78C43.0517 29.26 41.8017 29.5 40.4017 29.5C39.0617 29.5 37.8217 29.34 36.6817 29.02C35.5417 28.7 34.6617 28.27 34.0417 27.73L34.7017 23.95H36.6517L36.6817 26.11C37.1617 26.43 37.8117 26.68 38.6317 26.86C39.4517 27.06 40.3617 27.16 41.3617 27.16C42.5017 27.16 43.3817 26.96 44.0017 26.56C44.6217 26.18 44.9317 25.66 44.9317 25C44.9317 24.34 44.4417 23.94 43.4617 23.8C42.4217 23.62 41.7217 23.51 41.3617 23.47C40.0017 23.25 38.8817 23.06 38.0017 22.9C37.2817 22.76 36.7417 22.49 36.3817 22.09C36.0217 21.71 35.8417 21.16 35.8417 20.44L37.5817 17.8C36.5417 17.42 35.7217 16.8 35.1217 15.94C34.5417 15.06 34.2517 14.01 34.2517 12.79C34.2517 11.73 34.5117 10.78 35.0317 9.94C35.5517 9.08 36.3117 8.41 37.3117 7.93C38.3317 7.45 39.5317 7.21 40.9117 7.21C42.9717 7.21 44.3617 7.18 45.0817 7.12C45.8017 7.06 46.7317 6.88 47.8717 6.58V8.44ZM40.7017 16.21C41.7617 16.21 42.5217 15.92 42.9817 15.34C43.4417 14.76 43.6717 13.87 43.6717 12.67C43.6717 10.35 42.5517 9.19 40.3117 9.19C39.1717 9.19 38.3917 9.46 37.9717 10C37.5517 10.52 37.3417 11.4 37.3417 12.64C37.3417 13.8 37.6217 14.69 38.1817 15.31C38.7417 15.91 39.5817 16.21 40.7017 16.21ZM56.4531 22.3C54.3331 22.3 52.6931 21.66 51.5331 20.38C50.3931 19.08 49.8231 17.37 49.8231 15.25C49.8231 13.71 50.1331 12.34 50.7531 11.14C51.3731 9.92 52.2531 8.97 53.3931 8.29C54.5531 7.59 55.9131 7.24 57.4731 7.24C59.6131 7.24 61.2531 7.88 62.3931 9.16C63.5531 10.44 64.1331 12.13 64.1331 14.23C64.1331 15.75 63.8231 17.13 63.2031 18.37C62.5831 19.59 61.6931 20.55 60.5331 21.25C59.3731 21.95 58.0131 22.3 56.4531 22.3ZM57.3831 19.99C58.7031 19.99 59.6331 19.58 60.1731 18.76C60.7331 17.92 61.0131 16.61 61.0131 14.83C61.0131 13.11 60.6231 11.8 59.8431 10.9C59.0831 9.98 57.9831 9.52 56.5431 9.52C55.2231 9.52 54.2931 9.94 53.7531 10.78C53.2131 11.6 52.9431 12.91 52.9431 14.71C52.9431 16.45 53.3231 17.77 54.0831 18.67C54.8431 19.55 55.9431 19.99 57.3831 19.99Z" fill="#F3F2FF"/>
</svg>
